# xmcd
#
# Track frame offsets:
#	150
#	16932
#	41247
#	64433
#	83413
#	105714
#	131537
#	153089
#	178392
#	200962
#
# Disc length: 2974 seconds
#
# Revision: 0
# Processed by: cddbd v1.5.1PL2 Copyright (c) Steve Scherf et al.
# Submitted via: dBpowerAMP V4.0
#
DISCID=890b9c0a
DTITLE=Robi Zonca - do you know
DYEAR=1900
DGENRE=Blues
TTITLE0=Night Time
TTITLE1=Never Lie
TTITLE2=My Baby, She's Gone
TTITLE3=Spinning Wheel
TTITLE4=Really Want To Know
TTITLE5=TV Liar
TTITLE6=20 Bar Blues
TTITLE7=My Room
TTITLE8=Do You Know
TTITLE9=Podemos Solucionarlo
EXTD=
EXTT0=
EXTT1=
EXTT2=
EXTT3=
EXTT4=
EXTT5=
EXTT6=
EXTT7=
EXTT8=
EXTT9=
PLAYORDER=
